<?xml version="1.0" encoding="utf-8"?>
<!-- Generator: Adobe Illustrator 24.0.1, SVG Export Plug-In . SVG Version: 6.00 Build 0)  -->
<svg version="1.1" id="图层_1" xmlns="http://www.w3.org/2000/svg" xmlns:xlink="http://www.w3.org/1999/xlink" x="0px" y="0px"
	 viewBox="0 0 271 90.6" style="enable-background:new 0 0 271 90.6;" xml:space="preserve">
<style type="text/css">
	.st0{fill:#FFFFFF;}
	.st1{fill:none;stroke:#DDDDDD;stroke-miterlimit:10;}
	.st2{fill:none;}
	.st3{display:none;fill:none;stroke:#DDDDDD;stroke-miterlimit:10;}
	.st4{fill:none;stroke:#888888;stroke-miterlimit:10;}
	.st5{font-family:'Helvetica-Light';}
	.st6{font-size:10px;}
	.st7{font-family:'Helvetica-Bold';}
	.st8{font-size:11px;}
	.st9{display:none;}
	.st10{fill:none;stroke:#3182BD;stroke-width:2;stroke-miterlimit:10;}
	.st11{fill:#3182BD;}
	.st12{display:none;fill:#3182BD;}
</style>
<rect y="-5.4" class="st0" width="271" height="96"/>
<g transform="translate(65,9)">
	<g>
		<g transform="translate(0,0)">
			<path class="st1" d="M0.5-4.9h200v50H0.5V-4.9z"/>
			<g>
				<g>
					<g transform="translate(0.5,50.5)">
						<path pointer-events="none" class="st2" d="M0-5.4L0-5.4L0-5.4L0-5.4z"/>
						<g>
							<g pointer-events="none">
								<line class="st1" x1="0" y1="-5.4" x2="0" y2="-55.4"/>
								<line class="st1" x1="40" y1="-5.4" x2="40" y2="-55.4"/>
								<line class="st1" x1="80" y1="-5.4" x2="80" y2="-55.4"/>
								<line class="st1" x1="120" y1="-5.4" x2="120" y2="-55.4"/>
								<line class="st1" x1="160" y1="-5.4" x2="160" y2="-55.4"/>
								<line class="st1" x1="200" y1="-5.4" x2="200" y2="-55.4"/>
							</g>
						</g>
						<path pointer-events="none" class="st3" d="M0-5.4"/>
					</g>
				</g>
				<g>
					<g transform="translate(0.5,50.5)">
						<path pointer-events="none" class="st2" d="M0-5.4L0-5.4L0-5.4L0-5.4z"/>
						<g>
							<g pointer-events="none">
								<line class="st4" x1="0" y1="-5.4" x2="0" y2="-0.4"/>
								<line class="st4" x1="40" y1="-5.4" x2="40" y2="-0.4"/>
								<line class="st4" x1="80" y1="-5.4" x2="80" y2="-0.4"/>
								<line class="st4" x1="120" y1="-5.4" x2="120" y2="-0.4"/>
								<line class="st4" x1="160" y1="-5.4" x2="160" y2="-0.4"/>
								<line class="st4" x1="200" y1="-5.4" x2="200" y2="-0.4"/>
							</g>
							<g pointer-events="none">
								<text transform="matrix(1 0 0 1 0 9.6396)" class="st5 st6">0%</text>
								<text transform="matrix(1 0 0 1 29.995 9.6396)" class="st5 st6">10%</text>
								<text transform="matrix(1 0 0 1 69.9951 9.6396)" class="st5 st6">20%</text>
								<text transform="matrix(1 0 0 1 109.9951 9.6396)" class="st5 st6">30%</text>
								<text transform="matrix(1 0 0 1 149.9951 9.6396)" class="st5 st6">40%</text>
								<text transform="matrix(1 0 0 1 179.9901 9.6396)" class="st5 st6">50%</text>
							</g>
							<g pointer-events="none">
								<line class="st4" x1="0" y1="-5.4" x2="200" y2="-5.4"/>
							</g>
							<g pointer-events="none">
								<text transform="matrix(1 0 0 1 73.1016 24.6396)" class="st7 st8">Error Rate</text>
							</g>
						</g>
						<path pointer-events="none" class="st9" d="M0-5.4"/>
					</g>
				</g>
				<g>
					<g transform="translate(0.5,0.5)">
						<path pointer-events="none" class="st2" d="M0-5.4L0-5.4L0-5.4L0-5.4z"/>
						<g>
							<g pointer-events="none">
								<line class="st4" x1="0" y1="2.6" x2="-5" y2="2.6"/>
								<line class="st4" x1="0" y1="19.6" x2="-5" y2="19.6"/>
								<line class="st4" x1="0" y1="35.6" x2="-5" y2="35.6"/>
							</g>
							<g pointer-events="none">
								<text transform="matrix(1 0 0 1 -41.9995 5.473)" class="st5 st6">SHAP-c</text>
								<text transform="matrix(1 0 0 1 -44.7898 22.1396)" class="st5 st6">Random</text>
								<text transform="matrix(1 0 0 1 -39.2298 38.8063)" class="st5 st6">Human</text>
							</g>
							<g pointer-events="none">
								<line class="st4" x1="0" y1="-5.4" x2="0" y2="44.6"/>
							</g>
							<g pointer-events="none">
								<text transform="matrix(6.123234e-17 -1 1 6.123234e-17 -50.7979 53.3564)" class="st7 st8">Conditions</text>
							</g>
						</g>
						<path pointer-events="none" class="st9" d="M0-5.4"/>
					</g>
				</g>
				<g>
					<line class="st10" x1="171.3" y1="3" x2="197.3" y2="3"/>
					<line class="st10" x1="74.1" y1="19.6" x2="104.8" y2="19.6"/>
					<line class="st10" x1="109.8" y1="36.3" x2="166.5" y2="36.3"/>
				</g>
				<g>
					<path class="st11" d="M187.1,3c0,2.1-1.7,3.9-3.9,3.9c-2.1,0-3.9-1.7-3.9-3.9c0,0,0,0,0,0c0-2.1,1.7-3.9,3.9-3.9
						C185.3-0.9,187.1,0.8,187.1,3C187.1,3,187.1,3,187.1,3"/>
					<path class="st11" d="M91.6,19.6c0,2.1-1.7,3.9-3.9,3.9c-2.1,0-3.9-1.7-3.9-3.9c0,0,0,0,0,0c0-2.1,1.7-3.9,3.9-3.9
						C89.9,15.8,91.6,17.5,91.6,19.6C91.6,19.6,91.6,19.6,91.6,19.6"/>
					<path class="st11" d="M141.4,36.3c0,2.1-1.7,3.9-3.9,3.9c-2.1,0-3.9-1.7-3.9-3.9c0,0,0,0,0,0c0-2.1,1.7-3.9,3.9-3.9
						C139.7,32.4,141.4,34.2,141.4,36.3C141.4,36.3,141.4,36.3,141.4,36.3"/>
				</g>
			</g>
			<path class="st12" d="M0-5.4"/>
		</g>
	</g>
</g>
</svg>
