<?xml version="1.0" encoding="utf-8"?>
<!-- Generator: Adobe Illustrator 24.0.1, SVG Export Plug-In . SVG Version: 6.00 Build 0)  -->
<svg version="1.1" id="图层_1" xmlns="http://www.w3.org/2000/svg" xmlns:xlink="http://www.w3.org/1999/xlink" x="0px" y="0px"
	 viewBox="0 0 290.5 84.8" style="enable-background:new 0 0 290.5 84.8;" xml:space="preserve">
<style type="text/css">
	.st0{fill:#FFFFFF;}
	.st1{fill:none;stroke:#DDDDDD;stroke-miterlimit:10;}
	.st2{fill:none;}
	.st3{display:none;fill:none;stroke:#DDDDDD;stroke-miterlimit:10;}
	.st4{fill:none;stroke:#888888;stroke-miterlimit:10;}
	.st5{font-family:'Helvetica-Light';}
	.st6{font-size:10px;}
	.st7{font-family:'Helvetica-Bold';}
	.st8{font-size:11px;}
	.st9{display:none;}
	.st10{fill:none;stroke:#3182BD;stroke-width:2;stroke-miterlimit:10;}
	.st11{fill:#3182BD;}
	.st12{display:none;fill:#3182BD;}
</style>
<rect y="-6.9" class="st0" width="292" height="96"/>
<g transform="translate(106,9)">
	<g>
		<g transform="translate(0,0)">
			<path class="st1" d="M0.5-6.4h180v50H0.5V-6.4z"/>
			<g>
				<g>
					<g transform="translate(0.5,50.5)">
						<path pointer-events="none" class="st2" d="M0-6.9L0-6.9L0-6.9L0-6.9z"/>
						<g>
							<g pointer-events="none">
								<line class="st1" x1="0" y1="-6.9" x2="0" y2="-56.9"/>
								<line class="st1" x1="36" y1="-6.9" x2="36" y2="-56.9"/>
								<line class="st1" x1="72" y1="-6.9" x2="72" y2="-56.9"/>
								<line class="st1" x1="108" y1="-6.9" x2="108" y2="-56.9"/>
								<line class="st1" x1="144" y1="-6.9" x2="144" y2="-56.9"/>
								<line class="st1" x1="180" y1="-6.9" x2="180" y2="-56.9"/>
							</g>
						</g>
						<path pointer-events="none" class="st3" d="M0-6.9"/>
					</g>
				</g>
				<g>
					<g transform="translate(0.5,50.5)">
						<path pointer-events="none" class="st2" d="M0-6.9L0-6.9L0-6.9L0-6.9z"/>
						<g>
							<g pointer-events="none">
								<line class="st4" x1="0" y1="-6.9" x2="0" y2="-1.9"/>
								<line class="st4" x1="36" y1="-6.9" x2="36" y2="-1.9"/>
								<line class="st4" x1="72" y1="-6.9" x2="72" y2="-1.9"/>
								<line class="st4" x1="108" y1="-6.9" x2="108" y2="-1.9"/>
								<line class="st4" x1="144" y1="-6.9" x2="144" y2="-1.9"/>
								<line class="st4" x1="180" y1="-6.9" x2="180" y2="-1.9"/>
							</g>
							<g pointer-events="none">
								<text transform="matrix(1 0 0 1 0 8.1073)" class="st5 st6">0%</text>
								<text transform="matrix(1 0 0 1 25.9951 8.1073)" class="st5 st6">10%</text>
								<text transform="matrix(1 0 0 1 61.9951 8.1073)" class="st5 st6">20%</text>
								<text transform="matrix(1 0 0 1 97.9951 8.1073)" class="st5 st6">30%</text>
								<text transform="matrix(1 0 0 1 133.9951 8.1073)" class="st5 st6">40%</text>
								<text transform="matrix(1 0 0 1 159.9901 8.1073)" class="st5 st6">50%</text>
							</g>
							<g pointer-events="none">
								<line class="st4" x1="0" y1="-6.9" x2="180" y2="-6.9"/>
							</g>
							<g pointer-events="none">
								<text transform="matrix(1 0 0 1 63.1016 23.1073)" class="st7 st8">Error Rate</text>
							</g>
						</g>
						<path pointer-events="none" class="st9" d="M0-6.9"/>
					</g>
				</g>
				<g>
					<g transform="translate(0.5,0.5)">
						<path pointer-events="none" class="st2" d="M0-6.9L0-6.9L0-6.9L0-6.9z"/>
						<g>
							<g pointer-events="none">
								<line class="st4" x1="0" y1="1.1" x2="-5" y2="1.1"/>
								<line class="st4" x1="0" y1="18.1" x2="-5" y2="18.1"/>
								<line class="st4" x1="0" y1="34.1" x2="-5" y2="34.1"/>
							</g>
							<g pointer-events="none">
								<text transform="matrix(1 0 0 1 -84.7892 3.9407)" class="st5 st6">Polyjuice-random</text>
								<text transform="matrix(1 0 0 1 -75.3293 20.6073)" class="st5 st6">Expert-surprise</text>
								<text transform="matrix(1 0 0 1 -86.449 37.274)" class="st5 st6">Polyjuice-surprise</text>
							</g>
							<g pointer-events="none">
								<line class="st4" x1="0" y1="-6.9" x2="0" y2="43.1"/>
							</g>
							<g pointer-events="none">
								<text transform="matrix(6.123234e-17 -1 1 6.123234e-17 -91.916 50.8241)" class="st7 st8">Conditions</text>
							</g>
						</g>
						<path pointer-events="none" class="st9" d="M0-6.9"/>
					</g>
				</g>
				<g>
					<line class="st10" x1="73.1" y1="1.4" x2="95.1" y2="1.4"/>
					<line class="st10" x1="118.4" y1="18.1" x2="162" y2="18.1"/>
					<line class="st10" x1="149.3" y1="34.8" x2="172.2" y2="34.8"/>
				</g>
				<g>
					<path class="st11" d="M87.7,1.4c0,2.1-1.7,3.9-3.9,3.9c-2.1,0-3.9-1.7-3.9-3.9c0,0,0,0,0,0c0-2.1,1.7-3.9,3.9-3.9
						C85.9-2.4,87.7-0.7,87.7,1.4C87.7,1.4,87.7,1.4,87.7,1.4"/>
					<path class="st11" d="M143.7,18.1c0,2.1-1.7,3.9-3.9,3.9c-2.1,0-3.9-1.7-3.9-3.9c0,0,0,0,0,0c0-2.1,1.7-3.9,3.9-3.9
						C142,14.2,143.7,16,143.7,18.1C143.7,18.1,143.7,18.1,143.7,18.1"/>
					<path class="st11" d="M165.3,34.8c0,2.1-1.7,3.9-3.9,3.9c-2.1,0-3.9-1.7-3.9-3.9c0,0,0,0,0,0c0-2.1,1.7-3.9,3.9-3.9
						C163.6,30.9,165.3,32.6,165.3,34.8C165.3,34.8,165.3,34.8,165.3,34.8"/>
				</g>
			</g>
			<path class="st12" d="M0-6.9"/>
		</g>
	</g>
</g>
</svg>
