<?xml version="1.0" encoding="utf-8"?>
<!-- Generator: Adobe Illustrator 24.0.1, SVG Export Plug-In . SVG Version: 6.00 Build 0)  -->
<svg version="1.1" id="图层_1" xmlns="http://www.w3.org/2000/svg" xmlns:xlink="http://www.w3.org/1999/xlink" x="0px" y="0px"
	 viewBox="0 0 287.6 85.9" style="enable-background:new 0 0 287.6 85.9;" xml:space="preserve">
<style type="text/css">
	.st0{fill:#FFFFFF;}
	.st1{fill:none;stroke:#DDDDDD;stroke-miterlimit:10;}
	.st2{fill:none;}
	.st3{display:none;fill:none;stroke:#DDDDDD;stroke-miterlimit:10;}
	.st4{fill:none;stroke:#888888;stroke-miterlimit:10;}
	.st5{font-family:'Helvetica-Light';}
	.st6{font-size:10px;}
	.st7{font-family:'Helvetica-Bold';}
	.st8{font-size:11px;}
	.st9{display:none;}
	.st10{fill:none;stroke:#3182BD;stroke-width:2;stroke-miterlimit:10;}
	.st11{fill:#3182BD;}
	.st12{display:none;fill:#3182BD;}
</style>
<rect x="-4.4" y="-6.6" class="st0" width="292" height="96"/>
<g transform="translate(106,9)">
	<g>
		<g transform="translate(0,0)">
			<path class="st1" d="M-3.9-6.1h180v50h-180V-6.1z"/>
			<g>
				<g>
					<g transform="translate(0.5,50.5)">
						<path pointer-events="none" class="st2" d="M-4.4-6.6L-4.4-6.6L-4.4-6.6L-4.4-6.6z"/>
						<g>
							<g pointer-events="none">
								<line class="st1" x1="-4.4" y1="-6.6" x2="-4.4" y2="-56.6"/>
								<line class="st1" x1="31.6" y1="-6.6" x2="31.6" y2="-56.6"/>
								<line class="st1" x1="67.6" y1="-6.6" x2="67.6" y2="-56.6"/>
								<line class="st1" x1="103.6" y1="-6.6" x2="103.6" y2="-56.6"/>
								<line class="st1" x1="139.6" y1="-6.6" x2="139.6" y2="-56.6"/>
								<line class="st1" x1="175.6" y1="-6.6" x2="175.6" y2="-56.6"/>
							</g>
						</g>
						<path pointer-events="none" class="st3" d="M-4.4-6.6"/>
					</g>
				</g>
				<g>
					<g transform="translate(0.5,50.5)">
						<path pointer-events="none" class="st2" d="M-4.4-6.6L-4.4-6.6L-4.4-6.6L-4.4-6.6z"/>
						<g>
							<g pointer-events="none">
								<line class="st4" x1="-4.4" y1="-6.6" x2="-4.4" y2="-1.6"/>
								<line class="st4" x1="31.6" y1="-6.6" x2="31.6" y2="-1.6"/>
								<line class="st4" x1="67.6" y1="-6.6" x2="67.6" y2="-1.6"/>
								<line class="st4" x1="103.6" y1="-6.6" x2="103.6" y2="-1.6"/>
								<line class="st4" x1="139.6" y1="-6.6" x2="139.6" y2="-1.6"/>
								<line class="st4" x1="175.6" y1="-6.6" x2="175.6" y2="-1.6"/>
							</g>
							<g pointer-events="none">
								<text transform="matrix(1 0 0 1 -4.4403 8.44)" class="st5 st6">0%</text>
								<text transform="matrix(1 0 0 1 21.5548 8.44)" class="st5 st6">10%</text>
								<text transform="matrix(1 0 0 1 57.5548 8.44)" class="st5 st6">20%</text>
								<text transform="matrix(1 0 0 1 93.5548 8.44)" class="st5 st6">30%</text>
								<text transform="matrix(1 0 0 1 129.5548 8.44)" class="st5 st6">40%</text>
								<text transform="matrix(1 0 0 1 155.5498 8.44)" class="st5 st6">50%</text>
							</g>
							<g pointer-events="none">
								<line class="st4" x1="-4.4" y1="-6.6" x2="175.6" y2="-6.6"/>
							</g>
							<g pointer-events="none">
								<text transform="matrix(1 0 0 1 58.6613 23.44)" class="st7 st8">Error Rate</text>
							</g>
						</g>
						<path pointer-events="none" class="st9" d="M-4.4-6.6"/>
					</g>
				</g>
				<g>
					<g transform="translate(0.5,0.5)">
						<path pointer-events="none" class="st2" d="M-4.4-6.6L-4.4-6.6L-4.4-6.6L-4.4-6.6z"/>
						<g>
							<g pointer-events="none">
								<line class="st4" x1="-4.4" y1="1.4" x2="-9.4" y2="1.4"/>
								<line class="st4" x1="-4.4" y1="18.4" x2="-9.4" y2="18.4"/>
								<line class="st4" x1="-4.4" y1="34.4" x2="-9.4" y2="34.4"/>
							</g>
							<g pointer-events="none">
								<text transform="matrix(1 0 0 1 -89.2294 4.2734)" class="st5 st6">Polyjuice-random</text>
								<text transform="matrix(1 0 0 1 -40.33 20.94)" class="st5 st6">Expert</text>
								<text transform="matrix(1 0 0 1 -90.8893 37.6067)" class="st5 st6">Polyjuice-surprise</text>
							</g>
							<g pointer-events="none">
								<line class="st4" x1="-4.4" y1="-6.6" x2="-4.4" y2="43.4"/>
							</g>
							<g pointer-events="none">
								<text transform="matrix(6.123234e-17 -1 1 6.123234e-17 -96.3563 52.1568)" class="st7 st8">Conditions</text>
							</g>
						</g>
						<path pointer-events="none" class="st9" d="M-4.4-6.6"/>
					</g>
				</g>
				<g>
					<line class="st10" x1="68" y1="1.8" x2="90" y2="1.8"/>
					<line class="st10" x1="113.9" y1="18.4" x2="157.6" y2="18.4"/>
					<line class="st10" x1="145.5" y1="35.1" x2="167.1" y2="35.1"/>
				</g>
				<g>
					<path class="st11" d="M83.2,1.8c0,2.1-1.7,3.9-3.9,3.9c-2.1,0-3.9-1.7-3.9-3.9c0,0,0,0,0,0c0-2.1,1.7-3.9,3.9-3.9
						C81.5-2.1,83.2-0.4,83.2,1.8C83.2,1.8,83.2,1.8,83.2,1.8"/>
					<path class="st11" d="M139.3,18.4c0,2.1-1.7,3.9-3.9,3.9c-2.1,0-3.9-1.7-3.9-3.9c0,0,0,0,0,0c0-2.1,1.7-3.9,3.9-3.9
						C137.5,14.6,139.3,16.3,139.3,18.4C139.3,18.4,139.3,18.4,139.3,18.4"/>
					<path class="st11" d="M160.9,35.1c0,2.1-1.7,3.9-3.9,3.9s-3.9-1.7-3.9-3.9c0,0,0,0,0,0c0-2.1,1.7-3.9,3.9-3.9
						C159.1,31.2,160.9,33,160.9,35.1C160.9,35.1,160.9,35.1,160.9,35.1"/>
				</g>
			</g>
			<path class="st12" d="M-4.4-6.6"/>
		</g>
	</g>
</g>
</svg>
