<?xml version="1.0" encoding="utf-8"?>
<!-- Generator: Adobe Illustrator 24.0.1, SVG Export Plug-In . SVG Version: 6.00 Build 0)  -->
<svg version="1.1" id="图层_1" xmlns="http://www.w3.org/2000/svg" xmlns:xlink="http://www.w3.org/1999/xlink" x="0px" y="0px"
	 viewBox="0 0 265.8 91.6" style="enable-background:new 0 0 265.8 91.6;" xml:space="preserve">
<style type="text/css">
	.st0{fill:#FFFFFF;}
	.st1{fill:none;stroke:#DDDDDD;stroke-miterlimit:10;}
	.st2{fill:none;}
	.st3{display:none;fill:none;stroke:#DDDDDD;stroke-miterlimit:10;}
	.st4{fill:none;stroke:#888888;stroke-miterlimit:10;}
	.st5{font-family:'Helvetica-Light';}
	.st6{font-size:10px;}
	.st7{font-family:'Helvetica-Bold';}
	.st8{font-size:11px;}
	.st9{display:none;}
	.st10{fill:none;stroke:#3182BD;stroke-width:2;stroke-miterlimit:10;}
	.st11{fill:#3182BD;}
	.st12{display:none;fill:#3182BD;}
</style>
<rect x="-4.2" y="-4.4" class="st0" width="270" height="96"/>
<g transform="translate(65,9)">
	<g>
		<g transform="translate(0,0)">
			<path class="st1" d="M-3.7-3.9h200v50h-200V-3.9z"/>
			<g>
				<g>
					<g transform="translate(0.5,50.5)">
						<path pointer-events="none" class="st2" d="M-4.2-4.4L-4.2-4.4L-4.2-4.4L-4.2-4.4z"/>
						<g>
							<g pointer-events="none">
								<line class="st1" x1="-4.2" y1="-4.4" x2="-4.2" y2="-54.4"/>
								<line class="st1" x1="31.8" y1="-4.4" x2="31.8" y2="-54.4"/>
								<line class="st1" x1="68.8" y1="-4.4" x2="68.8" y2="-54.4"/>
								<line class="st1" x1="104.8" y1="-4.4" x2="104.8" y2="-54.4"/>
								<line class="st1" x1="140.8" y1="-4.4" x2="140.8" y2="-54.4"/>
								<line class="st1" x1="177.8" y1="-4.4" x2="177.8" y2="-54.4"/>
							</g>
						</g>
						<path pointer-events="none" class="st3" d="M-4.2-4.4"/>
					</g>
				</g>
				<g>
					<g transform="translate(0.5,50.5)">
						<path pointer-events="none" class="st2" d="M-4.2-4.4L-4.2-4.4L-4.2-4.4L-4.2-4.4z"/>
						<g>
							<g pointer-events="none">
								<line class="st4" x1="-4.2" y1="-4.4" x2="-4.2" y2="0.6"/>
								<line class="st4" x1="31.8" y1="-4.4" x2="31.8" y2="0.6"/>
								<line class="st4" x1="68.8" y1="-4.4" x2="68.8" y2="0.6"/>
								<line class="st4" x1="104.8" y1="-4.4" x2="104.8" y2="0.6"/>
								<line class="st4" x1="140.8" y1="-4.4" x2="140.8" y2="0.6"/>
								<line class="st4" x1="177.8" y1="-4.4" x2="177.8" y2="0.6"/>
							</g>
							<g pointer-events="none">
								<text transform="matrix(1 0 0 1 -4.1567 10.6067)" class="st5 st6">0.0</text>
								<text transform="matrix(1 0 0 1 25.2569 10.6067)" class="st5 st6">0.1</text>
								<text transform="matrix(1 0 0 1 61.6206 10.6067)" class="st5 st6">0.2</text>
								<text transform="matrix(1 0 0 1 97.9842 10.6067)" class="st5 st6">0.3</text>
								<text transform="matrix(1 0 0 1 134.3478 10.6067)" class="st5 st6">0.4</text>
								<text transform="matrix(1 0 0 1 170.7115 10.6067)" class="st5 st6">0.5</text>
							</g>
							<g pointer-events="none">
								<line class="st4" x1="-4.2" y1="-4.4" x2="195.8" y2="-4.4"/>
							</g>
							<g pointer-events="none">
								<text transform="matrix(1 0 0 1 68.9449 25.6067)" class="st7 st8">Error Rate</text>
							</g>
						</g>
						<path pointer-events="none" class="st9" d="M-4.2-4.4"/>
					</g>
				</g>
				<g>
					<g transform="translate(0.5,0.5)">
						<path pointer-events="none" class="st2" d="M-4.2-4.4L-4.2-4.4L-4.2-4.4L-4.2-4.4z"/>
						<g>
							<g pointer-events="none">
								<line class="st4" x1="-4.2" y1="3.6" x2="-9.2" y2="3.6"/>
								<line class="st4" x1="-4.2" y1="20.6" x2="-9.2" y2="20.6"/>
								<line class="st4" x1="-4.2" y1="36.6" x2="-9.2" y2="36.6"/>
							</g>
							<g pointer-events="none">
								<text transform="matrix(1 0 0 1 -46.1562 6.4401)" class="st5 st6">SHAP-c</text>
								<text transform="matrix(1 0 0 1 -48.9465 23.1067)" class="st5 st6">Random</text>
								<text transform="matrix(1 0 0 1 -43.3865 39.7734)" class="st5 st6">Human</text>
							</g>
							<g pointer-events="none">
								<line class="st4" x1="-4.2" y1="-4.4" x2="-4.2" y2="45.6"/>
							</g>
							<g pointer-events="none">
								<text transform="matrix(6.123234e-17 -1 1 6.123234e-17 -54.9546 49.3235)" class="st7 st8">Conditions</text>
							</g>
						</g>
						<path pointer-events="none" class="st9" d="M-4.2-4.4"/>
					</g>
				</g>
				<g>
					<line class="st10" x1="157" y1="3.9" x2="179.1" y2="3.9"/>
					<line class="st10" x1="59.6" y1="20.6" x2="101.5" y2="20.6"/>
					<line class="st10" x1="127.7" y1="37.3" x2="161" y2="37.3"/>
				</g>
				<g>
					<path class="st11" d="M171.2,3.9c0,2.1-1.7,3.9-3.9,3.9c-2.1,0-3.9-1.7-3.9-3.9c0,0,0,0,0,0c0-2.1,1.7-3.9,3.9-3.9
						C169.5,0.1,171.2,1.8,171.2,3.9C171.2,3.9,171.2,3.9,171.2,3.9"/>
					<path class="st11" d="M83.6,20.6c0,2.1-1.7,3.9-3.9,3.9c-2.1,0-3.9-1.7-3.9-3.9c0,0,0,0,0,0c0-2.1,1.7-3.9,3.9-3.9
						C81.9,16.7,83.6,18.5,83.6,20.6C83.6,20.6,83.6,20.6,83.6,20.6"/>
					<path class="st11" d="M146.7,37.3c0,2.1-1.7,3.9-3.9,3.9c-2.1,0-3.9-1.7-3.9-3.9c0,0,0,0,0,0c0-2.1,1.7-3.9,3.9-3.9
						S146.7,35.1,146.7,37.3C146.7,37.3,146.7,37.3,146.7,37.3"/>
				</g>
			</g>
			<path class="st12" d="M-4.2-4.4"/>
		</g>
	</g>
</g>
</svg>
