<?xml version="1.0" encoding="utf-8"?>
<!-- Generator: Adobe Illustrator 24.0.1, SVG Export Plug-In . SVG Version: 6.00 Build 0)  -->
<svg version="1.1" id="图层_1" xmlns="http://www.w3.org/2000/svg" xmlns:xlink="http://www.w3.org/1999/xlink" x="0px" y="0px"
	 viewBox="0 0 271 85.3" style="enable-background:new 0 0 271 85.3;" xml:space="preserve">
<style type="text/css">
	.st0{fill:#FFFFFF;}
	.st1{fill:none;stroke:#DDDDDD;stroke-miterlimit:10;}
	.st2{fill:none;}
	.st3{display:none;fill:none;stroke:#DDDDDD;stroke-miterlimit:10;}
	.st4{fill:none;stroke:#888888;stroke-miterlimit:10;}
	.st5{font-family:'Helvetica-Light';}
	.st6{font-size:10px;}
	.st7{font-family:'Helvetica-Bold';}
	.st8{font-size:11px;}
	.st9{display:none;}
	.st10{fill:none;stroke:#3182BD;stroke-width:2;stroke-miterlimit:10;}
	.st11{fill:#3182BD;}
	.st12{display:none;fill:#3182BD;}
</style>
<rect y="-7" class="st0" width="271" height="96"/>
<g transform="translate(65,9)">
	<g>
		<g transform="translate(0,0)">
			<path class="st1" d="M0.5-6.5h200v50H0.5V-6.5z"/>
			<g>
				<g>
					<g transform="translate(0.5,50.5)">
						<path pointer-events="none" class="st2" d="M0-7L0-7L0-7L0-7z"/>
						<g>
							<g pointer-events="none">
								<line class="st1" x1="0" y1="-7" x2="0" y2="-57"/>
								<line class="st1" x1="40" y1="-7" x2="40" y2="-57"/>
								<line class="st1" x1="80" y1="-7" x2="80" y2="-57"/>
								<line class="st1" x1="120" y1="-7" x2="120" y2="-57"/>
								<line class="st1" x1="160" y1="-7" x2="160" y2="-57"/>
								<line class="st1" x1="200" y1="-7" x2="200" y2="-57"/>
							</g>
						</g>
						<path pointer-events="none" class="st3" d="M0-7"/>
					</g>
				</g>
				<g>
					<g transform="translate(0.5,50.5)">
						<path pointer-events="none" class="st2" d="M0-7L0-7L0-7L0-7z"/>
						<g>
							<g pointer-events="none">
								<line class="st4" x1="0" y1="-7" x2="0" y2="-2"/>
								<line class="st4" x1="40" y1="-7" x2="40" y2="-2"/>
								<line class="st4" x1="80" y1="-7" x2="80" y2="-2"/>
								<line class="st4" x1="120" y1="-7" x2="120" y2="-2"/>
								<line class="st4" x1="160" y1="-7" x2="160" y2="-2"/>
								<line class="st4" x1="200" y1="-7" x2="200" y2="-2"/>
							</g>
							<g pointer-events="none">
								<text transform="matrix(1 0 0 1 0 8.0457)" class="st5 st6">0%</text>
								<text transform="matrix(1 0 0 1 29.995 8.0457)" class="st5 st6">10%</text>
								<text transform="matrix(1 0 0 1 69.9951 8.0457)" class="st5 st6">20%</text>
								<text transform="matrix(1 0 0 1 109.9951 8.0457)" class="st5 st6">30%</text>
								<text transform="matrix(1 0 0 1 149.9951 8.0457)" class="st5 st6">40%</text>
								<text transform="matrix(1 0 0 1 179.9901 8.0457)" class="st5 st6">50%</text>
							</g>
							<g pointer-events="none">
								<line class="st4" x1="0" y1="-7" x2="200" y2="-7"/>
							</g>
							<g pointer-events="none">
								<text transform="matrix(1 0 0 1 73.1016 23.0457)" class="st7 st8">Error Rate</text>
							</g>
						</g>
						<path pointer-events="none" class="st9" d="M0-7"/>
					</g>
				</g>
				<g>
					<g transform="translate(0.5,0.5)">
						<path pointer-events="none" class="st2" d="M0-7L0-7L0-7L0-7z"/>
						<g>
							<g pointer-events="none">
								<line class="st4" x1="0" y1="1" x2="-5" y2="1"/>
								<line class="st4" x1="0" y1="18" x2="-5" y2="18"/>
								<line class="st4" x1="0" y1="34" x2="-5" y2="34"/>
							</g>
							<g pointer-events="none">
								<text transform="matrix(1 0 0 1 -41.9995 3.8791)" class="st5 st6">SHAP-c</text>
								<text transform="matrix(1 0 0 1 -44.7898 20.5457)" class="st5 st6">Random</text>
								<text transform="matrix(1 0 0 1 -39.2298 37.2124)" class="st5 st6">Human</text>
							</g>
							<g pointer-events="none">
								<line class="st4" x1="0" y1="-7" x2="0" y2="43"/>
							</g>
							<g pointer-events="none">
								<text transform="matrix(6.123234e-17 -1 1 6.123234e-17 -50.7979 50.7625)" class="st7 st8">Conditions</text>
							</g>
						</g>
						<path pointer-events="none" class="st9" d="M0-7"/>
					</g>
				</g>
				<g>
					<line class="st10" x1="166.6" y1="1.4" x2="191.4" y2="1.4"/>
					<line class="st10" x1="81.2" y1="18" x2="104.9" y2="18"/>
					<line class="st10" x1="132.3" y1="34.7" x2="180" y2="34.7"/>
				</g>
				<g>
					<path class="st11" d="M183.2,1.4c0,2.1-1.7,3.9-3.9,3.9c-2.1,0-3.9-1.7-3.9-3.9c0,0,0,0,0,0c0-2.1,1.7-3.9,3.9-3.9
						C181.5-2.5,183.2-0.8,183.2,1.4C183.2,1.4,183.2,1.4,183.2,1.4"/>
					<path class="st11" d="M97,18c0,2.1-1.7,3.9-3.9,3.9c-2.1,0-3.9-1.7-3.9-3.9c0,0,0,0,0,0c0-2.1,1.7-3.9,3.9-3.9
						C95.2,14.2,97,15.9,97,18C97,18,97,18,97,18"/>
					<path class="st11" d="M159.3,34.7c0,2.1-1.7,3.9-3.9,3.9s-3.9-1.7-3.9-3.9c0,0,0,0,0,0c0-2.1,1.7-3.9,3.9-3.9
						S159.3,32.6,159.3,34.7C159.3,34.7,159.3,34.7,159.3,34.7"/>
				</g>
			</g>
			<path class="st12" d="M0-7"/>
		</g>
	</g>
</g>
</svg>
